<svg version="1.1" preserveAspectRatio="none" xmlns="http://www.w3.org/2000/svg" width="500" height="500" viewBox="0 0 500 500"><rect width="100%" height="100%" fill="#101010" fill-opacity="1"/><svg viewBox="462.6322 403 74.7356 120" width="207.39129" height="333" x="146.3044px" y="83.5px" xmlns="http://www.w3.org/2000/svg" xmlns:xlink="http://www.w3.org/1999/xlink" preserveAspectRatio="none"><defs></defs><style>.companyName {fill:#EFEFEF;fill-opacity:1;}.icon3-str {stroke:#C0C0C0;stroke-opacity:1;}</style><g opacity="1" transform="rotate(0 462.6322 403)">
<svg width="74.7356" height="120" x="462.6322" y="403" version="1.1" preserveAspectRatio="none" viewBox="1.4 -30 18.96 30.44">
  <g transform="matrix(1 0 0 1 0 0)" class="companyName"><path id="id-D6z1nYkh1" d="M19.08-30L20.36-30L20.36 0L19.08 0L19.08-4.36Q17.88-2.16 15.60-0.86Q13.32 0.44 10.92 0.44L10.92 0.44Q6.96 0.44 4.18-2.34Q1.40-5.12 1.40-9Q1.40-12.88 4.18-15.66Q6.96-18.44 10.92-18.44L10.92-18.44Q13.40-18.44 15.70-17.12Q18-15.80 19.08-13.60L19.08-13.60L19.08-30ZM2.68-8.98Q2.68-5.60 5.08-3.14Q7.48-0.68 10.86-0.68Q14.24-0.68 16.70-3.14Q19.16-5.60 19.16-8.96Q19.16-12.32 16.70-14.82Q14.24-17.32 10.88-17.32Q7.52-17.32 5.10-14.84Q2.68-12.36 2.68-8.98Z"/></g>
</svg>
</g></svg></svg>